<svg id="a0ee64ef-4ba7-4950-936b-7dc001a0e065" data-name="Ebene 1" xmlns="http://www.w3.org/2000/svg" viewBox="0 0 252.88 395.37"><path d="M127.68,216.4s-6.85,2.86-8.24,10.41.19,11.72,3,14,11.13,4.57,14.47,2.27,4.53-4.85,6.48-7.59c2.34-3.29,8.69-14.53,5.13-17-3.08-2.18-2.31-3.42-13-3A46.28,46.28,0,0,0,127.68,216.4Z" transform="translate(-9.48 -11.31)" fill="#fff"/><path d="M157.71,269l23.06,9.41s0,3.68-7.68,3.56a23.48,23.48,0,0,1-12.44-3.49l-2.8-5.22Z" transform="translate(-9.48 -11.31)" fill="#fff"/><path d="M144.65,170.88c.25,2.48.55,5.37.87,8.47s.64,6.38,1.08,9.57c.2,1.54.54,3.19.81,4.78s.56,3.19.83,4.72c.56,3.06,1,5.93,1.45,8.4.13.79.26,1.53.38,2.23l3.19.33c3,.34,5.74.66,8.64.88l8.8.75c3,.29,5.91.63,8.89,1.13a42.45,42.45,0,0,1,4.57,1c.86.21,1.52.44,2.2.67.92.34,1.54.59,2.29.93a47.9,47.9,0,0,1,7.21,4.17c-.06-.22-.13-.42-.18-.65a22.09,22.09,0,0,1-.53-4.93,24.46,24.46,0,0,1,.1-2.7c0-.41.05-.82.08-1.23s0-.83,0-1.25c0-1.72-.18-3.56-.24-5.43s-.25-3.79-.38-5.7-.22-3.84-.32-5.73-.16-3.77-.24-5.58-.09-3.61-.11-5.22a24.35,24.35,0,0,0-2.42-10.87c-.65-1.58-1-2.51-1-2.51s.65.74,1.73,2.06a22,22,0,0,1,3.77,6.23,22.89,22.89,0,0,1,1.2,4.81c.25,1.7.5,3.38.7,5.19s.48,3.66.63,5.56.32,3.84.48,5.78l.06,1.53a15.24,15.24,0,0,0,.39-1.9,57.31,57.31,0,0,0,.45-9.44c0-1.73-.17-3.53-.3-5.32l-.14-1.32a11,11,0,0,0-.2-1.28,17.92,17.92,0,0,0-.74-2.36c-.59-1.68-1.37-3.4-2.12-5.08s-1.54-3.36-2.28-5c-1.17-2.56-2.25-5-3.19-7.24-4.15-5.36-9.2-11.61-12-14.15-5.38-4.84-10.76-2.15-19.36-2.15s-7.52,3.23-12.79,14.52a38.59,38.59,0,0,0-2.8,8.51C144.27,167.36,144.45,169,144.65,170.88Z" transform="translate(-9.48 -11.31)" fill="#ffc92f"/><path d="M99.49,186.93c.48,2.39,1,5.17,1.43,8.13s1,6.12,1.57,9.17a32.63,32.63,0,0,0,1.07,4.25c.27.71.55,1.41.82,2.1s.58,1.35.89,2a74.93,74.93,0,0,0,3.92,7l1.73,2.8a15.73,15.73,0,0,0,1.46,2h0A27.76,27.76,0,0,1,114,220a24.08,24.08,0,0,1,1.18-2.25c.25-.41.51-.82.7-1.08l.15-.22.3-.38c.17-.21.35-.43.53-.62a15.09,15.09,0,0,1,4.55-3.15,33.8,33.8,0,0,1,4.49-1.72c1.48-.46,2.93-.85,4.38-1.23a25.2,25.2,0,0,1,4.88-.86,81.25,81.25,0,0,1,12.67.42c-.19-.43-.37-.85-.55-1.31a79.61,79.61,0,0,1-2.81-8.22c-.41-1.52-.88-3.1-1.24-4.72s-.72-3.27-1-5a71.19,71.19,0,0,1-.58-10v-1.42c-1.54-1.19-3.94-3.14-7.17-6.08-5.92-5.37-9.68-6.45-18.82-6.45s-11.29,4.3-15,14A28.27,28.27,0,0,0,99.1,185C99.23,185.61,99.36,186.25,99.49,186.93Z" transform="translate(-9.48 -11.31)" fill="#ffc92f"/><path d="M254.88,203.76c-2.15-11.29-9.14-34.41-11.29-43.55s-5.38-29-7.53-37.09-4.84-15.05-5.37-23.12-5.92-18.27-8.07-23.11-2.15-11.29-4.84-18.82-11.29-27.95-14-34.4S190.34,9.15,180.39,11.84,170.48,23.13,171,35.49s5.92,33.33,11.29,45.16,3.54,12.31,7.53,33.87c1.51,8.17.54,11.29,2.69,23.65,1.45,8.37,3.39,19.17,4.5,25.3l.75,1.29a77.82,77.82,0,0,1,5.09,10.32,18.9,18.9,0,0,1,.88,3.13c.13.61.14,1.08.2,1.54l.11,1.5a44.12,44.12,0,0,1,0,5.75,37.08,37.08,0,0,1-1.89,10,12.16,12.16,0,0,1-2,3.76c-.25.29-.49.52-.73.77v1a52.2,52.2,0,0,1-.14,5.74,10.17,10.17,0,0,1-.14,1.44c-.07.5-.14,1-.23,1.4-.19.86-.31,1.57-.42,2.38a32.67,32.67,0,0,0-.26,4.42,18.16,18.16,0,0,0,.32,2.84c1.67,1.18,3.29,2.33,4.93,3.35,2.29,1.41,4.94,3,7.19,4.71.83.6,1.63,1.21,2.43,1.82.47-.86,1.06-2,1.75-3.25l2.84-5.33q.79-1.5,1.62-3c.55-1,1.14-2,1.71-3.07,1.09-2,2.22-4.1,3.36-6a36.25,36.25,0,0,1,3.55-5.21,16,16,0,0,1,3.35-3.11,8.08,8.08,0,0,1,1.1-.64l.4-.2s-.35.53-.86,1.45a36.32,36.32,0,0,0-1.81,3.84c-.65,1.62-1.37,3.54-2.21,5.6a58.85,58.85,0,0,1-3,6.5c-.59,1-1.23,2.13-1.88,3.1s-1.35,1.95-2,2.88a37.24,37.24,0,0,1-4.11,4.76,25.17,25.17,0,0,1-2.82,2.44c1.12.86,2.21,1.73,3.29,2.62,4.3,3.5,8.41,7.07,12.41,10.54s8.24,6.34,12.23,9.39l19.66,14.61C260.65,248.57,256.75,213.57,254.88,203.76ZM190.33,72.57a14,14,0,0,1-2.51-1,7.52,7.52,0,0,1-1-.56,7.38,7.38,0,0,1,.82-.76,19.31,19.31,0,0,1,2.18-1.52,20.14,20.14,0,0,1,6.82-2.37,19.32,19.32,0,0,1,7.23.17,16.42,16.42,0,0,1,2.55.81,7.64,7.64,0,0,1,1,.48,8.39,8.39,0,0,1-.76.82,14.85,14.85,0,0,1-2.09,1.69,17.9,17.9,0,0,1-14.29,2.23ZM201,118.93a17.63,17.63,0,0,1-2.77-1.33,9.86,9.86,0,0,1-1-.69,11.53,11.53,0,0,1,1.07-.63,23.46,23.46,0,0,1,2.77-1.21,34.2,34.2,0,0,1,8.06-1.67c1.42-.14,2.83-.2,4.17-.22s2.6,0,3.72.06l2.89.17a6.78,6.78,0,0,1,1.23.1,7.9,7.9,0,0,1-.63,1.09,10.76,10.76,0,0,1-2.22,2.3,14.86,14.86,0,0,1-3.83,2.09,20,20,0,0,1-4.71,1.06A20.35,20.35,0,0,1,201,118.93Zm29.26,54.69a9.36,9.36,0,0,1-2.54,1.52,12.44,12.44,0,0,1-3.9.89,17.53,17.53,0,0,1-4.34-.23,20.32,20.32,0,0,1-7.26-2.88,23.73,23.73,0,0,1-2.22-1.66,8,8,0,0,1-.85-.8,10.17,10.17,0,0,1,1-.51,13,13,0,0,1,2.73-.81,21.77,21.77,0,0,1,7.72.09,37.11,37.11,0,0,1,6.93,2l2.47,1c.34.15.68.31,1,.49a7.08,7.08,0,0,1-.83.9Z" transform="translate(-9.48 -11.31)" fill="#ffc92f"/><path d="M180.77,278.41a11.11,11.11,0,0,1-.72,1.07c-1.5,1.93-3.13,1.68-7,1.93a17.21,17.21,0,0,1-8.17-1.39c-1.93-.76-5.59-7.32-6.67-9.36a5.07,5.07,0,0,1-.5-1.66l-.41-.07c-1.13-.17-2.48-.32-3.88-.65a20.76,20.76,0,0,1-4-1.37,75.7,75.7,0,0,1-6.9-3.93l-.4-.23c1,1,2,2.07,3,3.18l4.49,4.88c1.52,1.66,3.08,3.32,4.68,4.84.81.76,1.6,1.51,2.39,2.14.36.29.87.64,1.31,1l1.34.91a19.44,19.44,0,0,0,5.35,2.58,23,23,0,0,0,5.67.47,43.43,43.43,0,0,0,5.35-.35,8.65,8.65,0,0,0,3.92-1.24,11.31,11.31,0,0,0,2.17-2.2c-.09,0-.17-.12-.27-.17Z" transform="translate(-9.48 -11.31)" fill="#ffc92f"/><path d="M261.87,276.33c0-1.45,0-3.13-.11-5l-21.59-15c-4.13-2.92-8.39-5.77-12.68-9.13s-8.45-6.56-12.86-9.78c-2.22-1.59-4.44-3.21-6.72-4.72s-4.51-2.8-7.1-4.27c-5.08-3-9.63-6.49-14.45-8.52-.57-.25-1.31-.51-1.75-.67a20.49,20.49,0,0,0-2-.55c-1.18-.29-2.62-.52-4-.73-2.77-.39-5.62-.65-8.5-.87l-8.72-.54c-3-.14-6-.51-8.88-.8-5.75-.57-11.66-1.18-16.94-.82-1.38.12-2.09.18-3.71.3a21.18,21.18,0,0,0-4.41.67,15.83,15.83,0,0,0-5.88,4c-5.69,7.22-4.32,20,3.85,25.34A145.74,145.74,0,0,0,138.66,254l6.78,4c2.33,1.43,4.35,2.9,6.3,3.88a16.77,16.77,0,0,0,3,1.16c1,.29,2.13.45,3.41.7a73.92,73.92,0,0,1,7.26,1.83c1.11.31,2.32.68,3.14.83.2.05.34,0,.18.06a3.53,3.53,0,0,1,.65,0l.51.06.27.08a4.27,4.27,0,0,1,.77.31,12.62,12.62,0,0,1,1.8,1.17c2,1.5,3.55,3,5.2,4.17a13.53,13.53,0,0,0,1.19.78c.19.11.37.21.54.29l.74.33a25.91,25.91,0,0,1,3.07,1.65,26.88,26.88,0,0,1,5.11,4.22c.37.39.72.78,1.06,1.18l1,1.08a18.13,18.13,0,0,0,1.92,1.69c1.41,1.09,3,2,4.51,3.08a11,11,0,0,1,2.3,2,4.25,4.25,0,0,1,.51.81l.14.3.17.49a6.49,6.49,0,0,1,.18,1.58,5.63,5.63,0,0,0,.27,2,8.59,8.59,0,0,0,1,1.86c.39.59.87,1.19,1.28,1.7a17.49,17.49,0,0,0,1.45,1.52,21.61,21.61,0,0,0,3.08,2.38,38.84,38.84,0,0,0,10.89,4.32c2.67.65,4.12.88,4.12.88s-1.47-.08-4.2-.46a34.9,34.9,0,0,1-11.55-3.45,22.39,22.39,0,0,1-3.53-2.32c-.61-.49-1.14-1-1.67-1.51s-1.1-1.19-1.6-1.82a11.47,11.47,0,0,1-1.37-2.25,8,8,0,0,1-.61-2.77,4.14,4.14,0,0,0-.17-.92v-.12l-.15-.27c0-.07-.14-.17-.21-.26a9.17,9.17,0,0,0-1.81-1.29c-1.46-.86-3.17-1.7-4.86-2.81a21.17,21.17,0,0,1-2.53-2l-1.15-1c-.33-.34-.66-.67-1-1a23.23,23.23,0,0,0-3.34-2.58,11.07,11.07,0,0,1-1.81,3,5.85,5.85,0,0,1-2.12,1.56,17.46,17.46,0,0,1-2.53.94,33.69,33.69,0,0,1-5.73,1.09,22,22,0,0,1-6.77,0,19.66,19.66,0,0,1-6.78-2.83l-1.52-1c-.49-.34-.94-.63-1.49-1.05a28.28,28.28,0,0,1-2.8-2.44,114.51,114.51,0,0,1-9.05-10.39c-1.29-1.59-2.45-3.18-3.59-4.68-.17.07-.31.15-.48.23-1.9.89-4.16,1.78-6.58,2.63s-5,1.71-7.53,2.56l-3.76,1.3-3.63,1.32c-2.33.9-4.48,1.79-6.38,2.59a34.77,34.77,0,0,1-4.76,1.75,12.54,12.54,0,0,1-1.92.38s.59-.42,1.53-1.17,2.2-1.88,3.86-3.17a41.15,41.15,0,0,1,6-4c1.23-.62,2.35-1.23,3.67-1.77s2.6-1,3.93-1.5a72.05,72.05,0,0,1,7.88-2.1c2.35-.52,4.54-.91,6.47-1.23l-2-2.52-.61-.78a139.72,139.72,0,0,1-12.62-8.06,24.59,24.59,0,0,1-6.49-6.84,25,25,0,0,1-3.2-9.09l-.18-1.06-.16-1.31a21.86,21.86,0,0,1,0-2.56,23.88,23.88,0,0,1,.61-4.21c-.12-.06-.22-.09-.35-.16a11.07,11.07,0,0,1-2.21-1.57c-.77-.68-1.57-1.43-2.44-2.32a36.24,36.24,0,0,1-5.34-6.69c-.42-.68-.82-1.39-1.21-2.11s-.76-1.52-1.06-2.22a27.24,27.24,0,0,1-1.45-5c-.3-1.64-.56-3.28-.72-4.89-.12-.94-.19-1.87-.25-2.78a120.8,120.8,0,0,1-8.39-10.86C82.79,178,68.81,160.23,61.28,151.1s-14.72-29.53-21-36.56c-6.41-7.23-16.9-10.67-23.37-6.77C10.17,111.83,9.06,118,9.6,125.54s6,13.73,10.25,24.48a60.91,60.91,0,0,0,12.9,20.43c4.3,4.84,8.6,17.2,16.67,29S76.83,234.93,81.67,243s3.23,15.58,4.84,24.72,7.53,46.77,15,72.58,19.4,53,31.88,59.6c21.37,11.24,36.94,6.52,60,.07s49.82-17.53,55.74-29.36,11.26-25.28,12.53-40.37C263.11,315.51,261.87,293,261.87,276.33ZM145,228.57c-1.89,3.36-2.73,9.35-5,11.24s-5.57,2.58-9.14,2.13-8.19-1.39-9.45-3.6a16.7,16.7,0,0,1-1.89-9.53c.52-3.07,1.26-5.8,3.57-8.32s3.89-3.89,7.25-4.42a30.66,30.66,0,0,1,8-.52c2.77.27,9.06,1.36,9.48,2.84S146.85,225.21,145,228.57ZM52.81,154.18a3.69,3.69,0,0,1-.12.81,6.65,6.65,0,0,1-.41,1.16,9.64,9.64,0,0,1-.71,1.35,16.38,16.38,0,0,1-5.14,4.94A20.76,20.76,0,0,1,40.19,165c-1,.22-1.76.31-2.44.45a9.91,9.91,0,0,1-1.08.12A7.91,7.91,0,0,1,37.82,162a14.94,14.94,0,0,1,5.09-5.21,17.62,17.62,0,0,1,6.45-2.44c1-.16,1.79-.24,2.43-.31l1.05-.14a1.37,1.37,0,0,1-.07.29Zm20.51,35.14a8.22,8.22,0,0,1-1.56,3.11,9.18,9.18,0,0,1-1.24,1.33,13.34,13.34,0,0,1-1.39,1.09,13.12,13.12,0,0,1-5.8,2.07c-.88.08-1.68.07-2.29.07a6.74,6.74,0,0,1-1-.08,8.43,8.43,0,0,1,.2-1,8.94,8.94,0,0,1,.93-2.21,13.73,13.73,0,0,1,4.25-4.43A21.06,21.06,0,0,1,70.21,187c.33-.15.74-.26,1-.41s.65-.27.88-.41c.49-.26.87-.44.87-.44a4,4,0,0,1,.35,1,5.67,5.67,0,0,1,0,2.59Zm80.33,115.57c-.32,1.68-.67,4.1-1,7s-.64,6.34-1.31,10.06A49.5,49.5,0,0,1,148,333.43c-.81,1.79-1.61,3.54-2.35,5.3l-2.25,5.18c-1.45,3.36-2.82,6.51-4,9.2l-4,9a19.89,19.89,0,0,1,.27-2.74,71.47,71.47,0,0,1,1.36-7.09c.67-2.9,1.6-6.25,2.78-9.78.62-1.76,1.19-3.6,1.94-5.41s1.49-3.68,2.28-5.49a50.76,50.76,0,0,0,2-5.23c.56-1.77,1.15-3.52,1.59-5.28.94-3.49,1.73-6.87,2.63-9.73a41.52,41.52,0,0,1,2.67-6.78,19.17,19.17,0,0,1,1-1.77c.24-.4.36-.62.36-.62Zm23.49,75.9a10.57,10.57,0,0,1-2.4-1.91,32.93,32.93,0,0,1-3.09-3.58,54.85,54.85,0,0,1-3.5-5.06A31.59,31.59,0,0,1,165,363.5a42.4,42.4,0,0,1-1.93-8,63.85,63.85,0,0,1-.73-8.73c0-3,0-6,.23-8.95s.53-6,1-8.89,1-5.73,1.54-8.46c1.11-5.45,2.39-10.49,3.7-14.75.63-2.14,1.3-4.07,1.92-5.78s1.26-3.16,1.8-4.35A22.58,22.58,0,0,1,174,292.9l.58-.9s-.12.35-.36,1-.48,1.64-.83,2.85c-.63,2.49-1.32,6.1-2.08,10.43s-1.53,9.4-2.32,14.84c-.43,2.71-.74,5.53-1.14,8.37s-.65,5.63-.79,8.6-.36,5.79-.37,8.62A79.77,79.77,0,0,0,167,355,44.35,44.35,0,0,0,170.42,369c.86,1.93,1.85,3.78,2.66,5.32a40.46,40.46,0,0,0,2.35,3.95,12.3,12.3,0,0,0,1.86,2.27c.51.45.91.47.9.44a1.84,1.84,0,0,1-1.09-.23Z" transform="translate(-9.48 -11.31)" fill="#ffc92f"/></svg>